<?xml version="1.0" encoding="UTF-8" standalone="no"?>
<!-- Created with Inkscape (http://www.inkscape.org/) -->

<svg
   xmlns:dc="http://purl.org/dc/elements/1.1/"
   xmlns:cc="http://creativecommons.org/ns#"
   xmlns:rdf="http://www.w3.org/1999/02/22-rdf-syntax-ns#"
   xmlns:svg="http://www.w3.org/2000/svg"
   xmlns="http://www.w3.org/2000/svg"
   xmlns:sodipodi="http://sodipodi.sourceforge.net/DTD/sodipodi-0.dtd"
   xmlns:inkscape="http://www.inkscape.org/namespaces/inkscape"
   width="10.054167mm"
   height="10.054167mm"
   viewBox="0 0 10.054167 10.054167"
   version="1.1"
   id="svg8"
   sodipodi:docname="logo.svg"
   inkscape:version="0.92.4 (5da689c313, 2019-01-14)">
  <defs
     id="defs2" />
  <sodipodi:namedview
     id="base"
     pagecolor="#ffffff"
     bordercolor="#666666"
     borderopacity="1.0"
     inkscape:pageopacity="0.0"
     inkscape:pageshadow="2"
     inkscape:zoom="3.4451685"
     inkscape:cx="177.33639"
     inkscape:cy="-13.06796"
     inkscape:document-units="mm"
     inkscape:current-layer="layer1"
     showgrid="true"
     inkscape:snap-grids="true"
     showguides="true"
     inkscape:window-width="1920"
     inkscape:window-height="1001"
     inkscape:window-x="-9"
     inkscape:window-y="-9"
     inkscape:window-maximized="1"
     fit-margin-top="0"
     fit-margin-left="0"
     fit-margin-right="0"
     fit-margin-bottom="0"
     inkscape:guide-bbox="true">
    <inkscape:grid
       type="xygrid"
       id="grid4590"
       originx="-18.520829"
       originy="-185.58632" />
    <sodipodi:guide
       position="58.208334,-12.284213"
       orientation="1,0"
       id="guide4813"
       inkscape:locked="false" />
    <sodipodi:guide
       position="70.114586,-10.961296"
       orientation="0,1"
       id="guide4815"
       inkscape:locked="false" />
  </sodipodi:namedview>
  <metadata
     id="metadata5">
    <rdf:RDF>
      <cc:Work
         rdf:about="">
        <dc:format>image/svg+xml</dc:format>
        <dc:type
           rdf:resource="http://purl.org/dc/dcmitype/StillImage" />
        <dc:title />
      </cc:Work>
    </rdf:RDF>
  </metadata>
  <g
     inkscape:label="Layer 1"
     inkscape:groupmode="layer"
     id="layer1"
     transform="translate(-18.520836,-101.35954)">
    <rect
       style="fill:#d40000;stroke-width:0.0737531"
       id="rect4562"
       width="10.054167"
       height="10.054167"
       x="18.520836"
       y="113.64376"
       inkscape:export-xdpi="96"
       inkscape:export-ydpi="96"
       inkscape:label="Q_rect" />
    <g
       aria-label="uantylab"
       style="font-style:normal;font-weight:normal;font-size:10.58334446px;line-height:1.25;font-family:sans-serif;letter-spacing:0px;word-spacing:0px;fill:#000000;fill-opacity:1;stroke:none;stroke-width:0.26458323"
       id="text4570"
       inkscape:label="uantylab">
      <path
         d="M 32.219727,119.97444 H 31.68915 l -0.0508,-0.44027 h -0.02258 q -0.197556,0.23143 -0.434623,0.37254 -0.237066,0.13546 -0.547511,0.13546 -0.485422,0 -0.705556,-0.28786 -0.220133,-0.29351 -0.220133,-0.83538 v -1.71591 h 0.649111 v 1.63124 q 0,0.33867 0.112889,0.49671 0.118533,0.1524 0.4064,0.1524 0.197556,0 0.349956,-0.0903 0.158044,-0.0903 0.344311,-0.32173 v -1.86831 h 0.649111 z"
         style="font-style:normal;font-variant:normal;font-weight:600;font-stretch:normal;font-size:5.64444637px;font-family:'Source Code Pro';-inkscape-font-specification:'Source Code Pro Semi-Bold';font-variant-ligatures:normal;font-variant-caps:normal;font-variant-numeric:normal;font-feature-settings:normal;text-align:start;writing-mode:lr-tb;text-anchor:start;stroke-width:0.26458323"
         inkscape:connector-curvature="0"
         id="path4629" />
      <path
         d="m 33.098056,119.22937 q 0,-0.23142 0.107245,-0.4064 0.107244,-0.18062 0.338667,-0.3048 0.231422,-0.12417 0.592666,-0.2032 0.361245,-0.079 0.87489,-0.11288 -0.01693,-0.23707 -0.169334,-0.38947 -0.1524,-0.1524 -0.491067,-0.1524 -0.237066,0 -0.468489,0.0903 -0.225777,0.0847 -0.440266,0.2032 l -0.237067,-0.43462 q 0.254,-0.14676 0.581378,-0.26529 0.327378,-0.11853 0.682978,-0.11853 0.581378,0 0.886178,0.31044 0.3048,0.3048 0.3048,0.88618 v 1.64253 h -0.530578 l -0.0508,-0.34431 h -0.01693 q -0.220134,0.16933 -0.491067,0.29351 -0.265289,0.11853 -0.547511,0.11853 -0.2032,0 -0.372534,-0.0621 -0.169333,-0.0564 -0.293511,-0.16369 -0.124178,-0.10725 -0.191911,-0.254 -0.06773,-0.1524 -0.06773,-0.33303 z m 0.626534,-0.0508 q 0,0.18627 0.141111,0.27094 0.146756,0.0847 0.3556,0.0847 0.208845,0 0.400756,-0.0903 0.197556,-0.096 0.389467,-0.24835 v -0.58702 q -0.372534,0.0282 -0.620889,0.079 -0.248356,0.0451 -0.395112,0.11853 -0.146755,0.0734 -0.208844,0.16933 -0.06209,0.0903 -0.06209,0.2032 z"
         style="font-style:normal;font-variant:normal;font-weight:600;font-stretch:normal;font-size:5.64444637px;font-family:'Source Code Pro';-inkscape-font-specification:'Source Code Pro Semi-Bold';font-variant-ligatures:normal;font-variant-caps:normal;font-variant-numeric:normal;font-feature-settings:normal;text-align:start;writing-mode:lr-tb;text-anchor:start;stroke-width:0.26458323"
         inkscape:connector-curvature="0"
         id="path4631" />
      <path
         d="m 36.544608,117.20302 h 0.536223 l 0.0508,0.41769 h 0.02258 q 0.197555,-0.19756 0.434622,-0.33867 0.242711,-0.14675 0.564445,-0.14675 0.479778,0 0.705555,0.29351 0.225778,0.28786 0.225778,0.82973 v 1.71591 h -0.654756 v -1.63124 q 0,-0.33867 -0.118533,-0.49107 -0.112889,-0.15804 -0.400756,-0.15804 -0.2032,0 -0.361244,0.096 -0.158045,0.096 -0.349956,0.29351 v 1.89089 H 36.54461 Z"
         style="font-style:normal;font-variant:normal;font-weight:600;font-stretch:normal;font-size:5.64444637px;font-family:'Source Code Pro';-inkscape-font-specification:'Source Code Pro Semi-Bold';font-variant-ligatures:normal;font-variant-caps:normal;font-variant-numeric:normal;font-feature-settings:normal;text-align:start;writing-mode:lr-tb;text-anchor:start;stroke-width:0.26458323"
         inkscape:connector-curvature="0"
         id="path4633" />
      <path
         d="m 40.538671,117.71666 h -0.739422 v -0.48542 l 0.767645,-0.0282 0.08467,-0.75636 h 0.536223 v 0.75636 h 1.264356 v 0.51364 h -1.264356 v 1.14018 q 0,0.34431 0.141111,0.508 0.141111,0.15805 0.496711,0.15805 0.180622,0 0.327378,-0.0282 0.146756,-0.0339 0.282222,-0.0847 l 0.124178,0.47413 q -0.186267,0.0621 -0.412044,0.10724 -0.225778,0.0508 -0.479778,0.0508 -0.316089,0 -0.530578,-0.0847 -0.214489,-0.0847 -0.349956,-0.23707 -0.129822,-0.15804 -0.191911,-0.37818 -0.05644,-0.22013 -0.05644,-0.48542 z"
         style="font-style:normal;font-variant:normal;font-weight:600;font-stretch:normal;font-size:5.64444637px;font-family:'Source Code Pro';-inkscape-font-specification:'Source Code Pro Semi-Bold';font-variant-ligatures:normal;font-variant-caps:normal;font-variant-numeric:normal;font-feature-settings:normal;text-align:start;writing-mode:lr-tb;text-anchor:start;stroke-width:0.26458323"
         inkscape:connector-curvature="0"
         id="path4635" />
      <path
         d="m 43.353046,120.55018 q 0.05644,0.0169 0.112889,0.0282 0.05644,0.0113 0.118533,0.0113 0.265289,0 0.423333,-0.13547 0.158045,-0.12982 0.242712,-0.33867 l 0.06773,-0.17498 -1.241778,-2.73755 h 0.649111 l 0.570089,1.36031 q 0.07902,0.18627 0.1524,0.39511 0.07338,0.20885 0.1524,0.41769 h 0.02258 q 0.06209,-0.19756 0.135467,-0.4064 0.07338,-0.20884 0.141111,-0.4064 l 0.502356,-1.36031 h 0.615244 l -1.157111,2.8956 q -0.09031,0.23707 -0.2032,0.42333 -0.107245,0.18627 -0.254,0.31609 -0.146756,0.13547 -0.338667,0.2032 -0.191911,0.0734 -0.440267,0.0734 -0.112889,0 -0.214489,-0.0169 -0.1016,-0.0113 -0.180622,-0.0395 l 0.124178,-0.508 z"
         style="font-style:normal;font-variant:normal;font-weight:600;font-stretch:normal;font-size:5.64444637px;font-family:'Source Code Pro';-inkscape-font-specification:'Source Code Pro Semi-Bold';font-variant-ligatures:normal;font-variant-caps:normal;font-variant-numeric:normal;font-feature-settings:normal;text-align:start;writing-mode:lr-tb;text-anchor:start;stroke-width:0.26458323"
         inkscape:connector-curvature="0"
         id="path4637" />
      <path
         d="m 46.635909,115.98946 h 1.524 v 3.00849 q 0,0.28222 0.141112,0.40076 0.141111,0.11289 0.3556,0.11289 0.2032,0 0.474133,-0.10725 l 0.1524,0.47978 q -0.197555,0.0677 -0.372533,0.11289 -0.169334,0.0451 -0.412045,0.0451 -0.491067,0 -0.739422,-0.28222 -0.248356,-0.28222 -0.248356,-0.79586 v -2.46098 h -0.874889 z"
         style="font-style:normal;font-variant:normal;font-weight:600;font-stretch:normal;font-size:5.64444637px;font-family:'Source Code Pro';-inkscape-font-specification:'Source Code Pro Semi-Bold';font-variant-ligatures:normal;font-variant-caps:normal;font-variant-numeric:normal;font-feature-settings:normal;text-align:start;writing-mode:lr-tb;text-anchor:start;stroke-width:0.26458323"
         inkscape:connector-curvature="0"
         id="path4639" />
      <path
         d="m 50.020371,119.22937 q 0,-0.23142 0.107245,-0.4064 0.107244,-0.18062 0.338667,-0.3048 0.231422,-0.12417 0.592666,-0.2032 0.361245,-0.079 0.87489,-0.11288 -0.01693,-0.23707 -0.169334,-0.38947 -0.1524,-0.1524 -0.491067,-0.1524 -0.237066,0 -0.468489,0.0903 -0.225778,0.0847 -0.440267,0.2032 l -0.237066,-0.43462 q 0.254,-0.14676 0.581378,-0.26529 0.327378,-0.11853 0.682978,-0.11853 0.581378,0 0.886178,0.31044 0.3048,0.3048 0.3048,0.88618 v 1.64253 h -0.530578 l -0.0508,-0.34431 h -0.01693 q -0.220134,0.16933 -0.491067,0.29351 -0.265289,0.11853 -0.547512,0.11853 -0.2032,0 -0.372533,-0.0621 -0.169333,-0.0564 -0.293511,-0.16369 -0.124178,-0.10725 -0.191911,-0.254 -0.06773,-0.1524 -0.06773,-0.33303 z m 0.626534,-0.0508 q 0,0.18627 0.141111,0.27094 0.146756,0.0847 0.3556,0.0847 0.208845,0 0.400756,-0.0903 0.197555,-0.096 0.389467,-0.24835 v -0.58702 q -0.372534,0.0282 -0.62089,0.079 -0.248355,0.0451 -0.395111,0.11853 -0.146755,0.0734 -0.208844,0.16933 -0.06209,0.0903 -0.06209,0.2032 z"
         style="font-style:normal;font-variant:normal;font-weight:600;font-stretch:normal;font-size:5.64444637px;font-family:'Source Code Pro';-inkscape-font-specification:'Source Code Pro Semi-Bold';font-variant-ligatures:normal;font-variant-caps:normal;font-variant-numeric:normal;font-feature-settings:normal;text-align:start;writing-mode:lr-tb;text-anchor:start;stroke-width:0.26458323"
         inkscape:connector-curvature="0"
         id="path4641" />
      <path
         d="m 53.466924,115.98946 h 0.654756 v 1.02729 l -0.02258,0.48542 q 0.180623,-0.16933 0.406401,-0.26528 0.225777,-0.1016 0.451555,-0.1016 0.270934,0 0.479778,0.1016 0.208845,0.096 0.3556,0.28222 0.146756,0.18062 0.220134,0.44026 0.07902,0.25965 0.07902,0.58138 0,0.3556 -0.1016,0.63782 -0.1016,0.27658 -0.276578,0.46849 -0.169333,0.19191 -0.395111,0.29351 -0.220134,0.1016 -0.4572,0.1016 -0.197556,0 -0.412045,-0.096 -0.214489,-0.096 -0.395111,-0.27658 h -0.01693 l -0.05644,0.3048 h -0.513645 z m 0.654756,3.26249 q 0.1524,0.14111 0.316089,0.19756 0.163689,0.0564 0.293511,0.0564 0.293512,0 0.491067,-0.23706 0.197556,-0.24272 0.197556,-0.71685 0,-0.41769 -0.1524,-0.64911 -0.1524,-0.23142 -0.491067,-0.23142 -0.158045,0 -0.321733,0.079 -0.163689,0.079 -0.333023,0.254 z"
         style="font-style:normal;font-variant:normal;font-weight:600;font-stretch:normal;font-size:5.64444637px;font-family:'Source Code Pro';-inkscape-font-specification:'Source Code Pro Semi-Bold';font-variant-ligatures:normal;font-variant-caps:normal;font-variant-numeric:normal;font-feature-settings:normal;text-align:start;writing-mode:lr-tb;text-anchor:start;stroke-width:0.26458323"
         inkscape:connector-curvature="0"
         id="path4643" />
    </g>
    <g
       aria-label="Q"
       style="font-style:normal;font-variant:normal;font-weight:900;font-stretch:normal;font-size:10.58334446px;line-height:1.25;font-family:'Source Code Pro';-inkscape-font-specification:'Source Code Pro, Heavy';font-variant-ligatures:normal;font-variant-caps:normal;font-variant-numeric:normal;font-feature-settings:normal;text-align:start;letter-spacing:0px;word-spacing:0px;writing-mode:lr-tb;text-anchor:start;fill:#000000;fill-opacity:1;stroke:none;stroke-width:0.26458323"
       id="text3723"
       inkscape:label="Q">
      <path
         d="m 23.425341,116.34293 q -0.3556,0 -0.5588,0.41487 -0.194733,0.4064 -0.194733,1.15993 0,0.75353 0.194733,1.1938 0.2032,0.4318 0.5588,0.4318 0.3556,0 0.550333,-0.4318 0.2032,-0.44027 0.2032,-1.1938 0,-0.75353 -0.2032,-1.15993 -0.194733,-0.41487 -0.550333,-0.41487 z m 2.489199,5.70653 q -0.143933,0.0931 -0.364067,0.14393 -0.220133,0.0593 -0.516466,0.0593 -0.846666,0 -1.430866,-0.4318 -0.5842,-0.4318 -0.855133,-1.12607 -0.719667,-0.2286 -1.143,-0.9398 -0.423333,-0.7112 -0.423333,-1.83726 0,-0.67733 0.160867,-1.20227 0.160866,-0.5334 0.4572,-0.889 0.296333,-0.36406 0.711199,-0.55033 0.414867,-0.18627 0.9144,-0.18627 0.499533,0 0.9144,0.18627 0.414866,0.18627 0.711199,0.55033 0.296333,0.36407 0.4572,0.889 0.160867,0.52494 0.160867,1.20227 0,1.05833 -0.381,1.7526 -0.372533,0.69426 -1.024466,0.9652 0.0762,0.14393 0.177799,0.2286 0.110067,0.0931 0.237067,0.14393 0.127,0.0508 0.262467,0.0677 0.135466,0.0254 0.262466,0.0254 0.127,0 0.245533,-0.0423 0.118534,-0.0339 0.211667,-0.0762 z"
         style="font-style:normal;font-variant:normal;font-weight:900;font-stretch:normal;font-size:8.46666336px;font-family:'Source Code Pro';-inkscape-font-specification:'Source Code Pro Heavy';font-variant-ligatures:normal;font-variant-caps:normal;font-variant-numeric:normal;font-feature-settings:normal;text-align:start;writing-mode:lr-tb;text-anchor:start;fill:#ffffff;stroke-width:0.26458323"
         inkscape:connector-curvature="0"
         id="path4626" />
    </g>
    <rect
       style="fill:#d40000;stroke-width:0.0737531"
       id="rect4562-6"
       width="10.054167"
       height="10.054167"
       x="19.050001"
       y="81.893753"
       inkscape:export-xdpi="96"
       inkscape:export-ydpi="96"
       inkscape:label="uantylab" />
    <text
       xml:space="preserve"
       style="font-style:normal;font-weight:normal;font-size:10.58334446px;line-height:1.25;font-family:sans-serif;letter-spacing:0px;word-spacing:0px;fill:#000000;fill-opacity:1;stroke:none;stroke-width:0.26458323"
       x="29.842009"
       y="88.224434"
       id="text4570-7"
       inkscape:export-xdpi="96"
       inkscape:export-ydpi="96"
       inkscape:label="Q_rect"><tspan
         sodipodi:role="line"
         id="tspan4568"
         x="29.842009"
         y="88.224434"
         style="font-style:normal;font-variant:normal;font-weight:600;font-stretch:normal;font-size:5.64444685px;font-family:'Source Code Pro';-inkscape-font-specification:'Source Code Pro Semi-Bold';font-variant-ligatures:normal;font-variant-caps:normal;font-variant-numeric:normal;font-feature-settings:normal;text-align:start;letter-spacing:0px;writing-mode:lr-tb;text-anchor:start;stroke-width:0.26458323">uantylab</tspan></text>
    <text
       xml:space="preserve"
       style="font-style:normal;font-variant:normal;font-weight:900;font-stretch:normal;font-size:10.58334446px;line-height:1.25;font-family:'Source Code Pro';-inkscape-font-specification:'Source Code Pro, Heavy';font-variant-ligatures:normal;font-variant-caps:normal;font-variant-numeric:normal;font-feature-settings:normal;text-align:start;letter-spacing:0px;word-spacing:0px;writing-mode:lr-tb;text-anchor:start;fill:#000000;fill-opacity:1;stroke:none;stroke-width:0.26458323"
       x="21.448378"
       y="88.944786"
       id="text3723-0"
       inkscape:export-xdpi="96"
       inkscape:export-ydpi="96"
       inkscape:label="Q"><tspan
         sodipodi:role="line"
         id="tspan3721"
         x="21.448378"
         y="88.944786"
         style="font-style:normal;font-variant:normal;font-weight:900;font-stretch:normal;font-size:8.46666336px;font-family:'Source Code Pro';-inkscape-font-specification:'Source Code Pro Heavy';font-variant-ligatures:normal;font-variant-caps:normal;font-variant-numeric:normal;font-feature-settings:normal;text-align:start;writing-mode:lr-tb;text-anchor:start;fill:#ffffff;stroke-width:0.26458323">Q</tspan></text>
    <rect
       style="fill:#d40000;stroke-width:0.0737531"
       id="rect4562-2"
       width="10.054167"
       height="10.054167"
       x="18.520836"
       y="101.35954"
       inkscape:export-xdpi="96"
       inkscape:export-ydpi="96"
       inkscape:label="Q_rect" />
    <g
       transform="translate(2.2271575e-8,-12.284228)"
       aria-label="Q"
       style="font-style:normal;font-variant:normal;font-weight:900;font-stretch:normal;font-size:10.58334446px;line-height:1.25;font-family:'Source Code Pro';-inkscape-font-specification:'Source Code Pro, Heavy';font-variant-ligatures:normal;font-variant-caps:normal;font-variant-numeric:normal;font-feature-settings:normal;text-align:start;letter-spacing:0px;word-spacing:0px;writing-mode:lr-tb;text-anchor:start;fill:#000000;fill-opacity:1;stroke:none;stroke-width:0.26458323"
       id="text3723-9"
       inkscape:label="Q">
      <path
         d="m 23.425341,116.34293 q -0.3556,0 -0.5588,0.41487 -0.194733,0.4064 -0.194733,1.15993 0,0.75353 0.194733,1.1938 0.2032,0.4318 0.5588,0.4318 0.3556,0 0.550333,-0.4318 0.2032,-0.44027 0.2032,-1.1938 0,-0.75353 -0.2032,-1.15993 -0.194733,-0.41487 -0.550333,-0.41487 z m 2.489199,5.70653 q -0.143933,0.0931 -0.364067,0.14393 -0.220133,0.0593 -0.516466,0.0593 -0.846666,0 -1.430866,-0.4318 -0.5842,-0.4318 -0.855133,-1.12607 -0.719667,-0.2286 -1.143,-0.9398 -0.423333,-0.7112 -0.423333,-1.83726 0,-0.67733 0.160867,-1.20227 0.160866,-0.5334 0.4572,-0.889 0.296333,-0.36406 0.711199,-0.55033 0.414867,-0.18627 0.9144,-0.18627 0.499533,0 0.9144,0.18627 0.414866,0.18627 0.711199,0.55033 0.296333,0.36407 0.4572,0.889 0.160867,0.52494 0.160867,1.20227 0,1.05833 -0.381,1.7526 -0.372533,0.69426 -1.024466,0.9652 0.0762,0.14393 0.177799,0.2286 0.110067,0.0931 0.237067,0.14393 0.127,0.0508 0.262467,0.0677 0.135466,0.0254 0.262466,0.0254 0.127,0 0.245533,-0.0423 0.118534,-0.0339 0.211667,-0.0762 z"
         style="font-style:normal;font-variant:normal;font-weight:900;font-stretch:normal;font-size:8.46666336px;font-family:'Source Code Pro';-inkscape-font-specification:'Source Code Pro Heavy';font-variant-ligatures:normal;font-variant-caps:normal;font-variant-numeric:normal;font-feature-settings:normal;text-align:start;writing-mode:lr-tb;text-anchor:start;fill:#ffffff;stroke-width:0.26458323"
         inkscape:connector-curvature="0"
         id="path4626-3" />
    </g>
    <g
       aria-label="blog"
       style="font-style:normal;font-weight:normal;font-size:10.58334446px;line-height:1.25;font-family:sans-serif;letter-spacing:0px;word-spacing:0px;fill:#000000;fill-opacity:1;stroke:none;stroke-width:0.26458323"
       id="text4570-7-0"
       inkscape:label="blog">
      <path
         d="m 77.228131,119.06908 h 0.289277 v 0.68439 l -0.0071,0.33161 q 0.123472,-0.11995 0.275166,-0.1905 0.155223,-0.0706 0.306917,-0.0706 0.172861,0 0.306917,0.0635 0.134055,0.06 0.22225,0.17639 0.09172,0.11289 0.137583,0.27517 0.04586,0.15875 0.04586,0.3563 0,0.21873 -0.0635,0.39159 -0.0635,0.17286 -0.172861,0.2928 -0.105833,0.11995 -0.246944,0.18345 -0.141111,0.06 -0.292806,0.06 -0.123472,0 -0.268111,-0.06 -0.141111,-0.0635 -0.264583,-0.17286 h -0.01058 l -0.02469,0.1905 h -0.232833 z m 0.289277,2.10961 q 0.123473,0.10936 0.246945,0.15522 0.127,0.0459 0.218722,0.0459 0.112889,0 0.208139,-0.0459 0.09525,-0.0494 0.165805,-0.13405 0.07056,-0.0882 0.109362,-0.2152 0.0388,-0.127 0.0388,-0.28575 0,-0.14111 -0.02822,-0.25753 -0.02822,-0.11641 -0.08819,-0.19755 -0.05644,-0.0847 -0.148166,-0.13053 -0.09172,-0.0459 -0.218722,-0.0459 -0.112889,0 -0.243417,0.0635 -0.127,0.06 -0.261056,0.19403 z"
         style="font-style:normal;font-variant:normal;font-weight:normal;font-stretch:normal;font-size:3.52777767px;font-family:'Source Code Pro';-inkscape-font-specification:'Source Code Pro';font-variant-ligatures:normal;font-variant-caps:normal;font-variant-numeric:normal;font-feature-settings:normal;text-align:start;letter-spacing:0px;writing-mode:lr-tb;text-anchor:start;fill:#000000;stroke-width:0.26458323"
         id="path4870"
         inkscape:connector-curvature="0" />
      <path
         d="m 79.301086,119.06908 h 0.874889 v 1.95792 q 0,0.1905 0.08819,0.27516 0.09172,0.0811 0.246945,0.0811 0.141111,0 0.324555,-0.0811 l 0.07408,0.21872 q -0.116416,0.0423 -0.218722,0.0706 -0.102305,0.0317 -0.243416,0.0317 -0.275167,0 -0.419806,-0.15522 -0.141111,-0.15522 -0.141111,-0.46214 v -1.70039 h -0.585611 z"
         style="font-style:normal;font-variant:normal;font-weight:normal;font-stretch:normal;font-size:3.52777767px;font-family:'Source Code Pro';-inkscape-font-specification:'Source Code Pro';font-variant-ligatures:normal;font-variant-caps:normal;font-variant-numeric:normal;font-feature-settings:normal;text-align:start;letter-spacing:0px;writing-mode:lr-tb;text-anchor:start;fill:#000000;stroke-width:0.26458323"
         id="path4872"
         inkscape:connector-curvature="0" />
      <path
         d="m 81.342291,120.72713 q 0,-0.21519 0.06703,-0.381 0.07055,-0.16933 0.186972,-0.28575 0.116417,-0.11641 0.268111,-0.17638 0.155222,-0.06 0.324556,-0.06 0.169333,0 0.321027,0.06 0.155223,0.06 0.271639,0.17638 0.116417,0.11642 0.183445,0.28575 0.07055,0.16581 0.07055,0.381 0,0.21167 -0.07055,0.381 -0.06703,0.16581 -0.183445,0.28223 -0.116416,0.11289 -0.271639,0.17286 -0.151694,0.06 -0.321027,0.06 -0.169334,0 -0.324556,-0.06 -0.151694,-0.06 -0.268111,-0.17286 -0.116417,-0.11642 -0.186972,-0.28223 -0.06703,-0.16933 -0.06703,-0.381 z m 0.299861,0 q 0,0.14817 0.03881,0.26812 0.0388,0.11994 0.109361,0.20813 0.07408,0.0847 0.172861,0.13406 0.102305,0.0459 0.225778,0.0459 0.123472,0 0.22225,-0.0459 0.102305,-0.0494 0.172861,-0.13406 0.07408,-0.0882 0.112889,-0.20813 0.03881,-0.11995 0.03881,-0.26812 0,-0.14816 -0.03881,-0.26811 -0.03881,-0.12347 -0.112889,-0.21166 -0.07056,-0.0882 -0.172861,-0.13406 -0.09878,-0.0494 -0.22225,-0.0494 -0.123473,0 -0.225778,0.0494 -0.09878,0.0459 -0.172861,0.13406 -0.07056,0.0882 -0.109361,0.21166 -0.03881,0.11995 -0.03881,0.26811 z"
         style="font-style:normal;font-variant:normal;font-weight:normal;font-stretch:normal;font-size:3.52777767px;font-family:'Source Code Pro';-inkscape-font-specification:'Source Code Pro';font-variant-ligatures:normal;font-variant-caps:normal;font-variant-numeric:normal;font-feature-settings:normal;text-align:start;letter-spacing:0px;writing-mode:lr-tb;text-anchor:start;fill:#000000;stroke-width:0.26458323"
         id="path4874"
         inkscape:connector-curvature="0" />
      <path
         d="m 83.750385,121.86661 q 0,0.13405 0.141111,0.21872 0.144639,0.0847 0.419805,0.0847 0.148167,0 0.268112,-0.0318 0.119944,-0.0282 0.204611,-0.0776 0.08467,-0.0494 0.127,-0.11288 0.04586,-0.0635 0.04586,-0.13053 0,-0.12347 -0.09878,-0.16581 -0.09525,-0.0423 -0.292806,-0.0423 H 84.23016 q -0.07408,0 -0.141112,-0.007 -0.0635,-0.004 -0.119944,-0.0212 -0.123472,0.067 -0.172861,0.13758 -0.04586,0.0741 -0.04586,0.14817 z m -0.250472,0.0282 q 0,-0.10231 0.07055,-0.20108 0.07408,-0.0988 0.211667,-0.17992 v -0.0141 q -0.07056,-0.0388 -0.123472,-0.10584 -0.05292,-0.067 -0.05292,-0.17638 0,-0.0811 0.05292,-0.16581 0.05292,-0.0882 0.151694,-0.15522 v -0.0141 q -0.08819,-0.067 -0.151694,-0.17639 -0.05997,-0.11289 -0.05997,-0.26811 0,-0.14111 0.05292,-0.254 0.05644,-0.11289 0.148167,-0.1905 0.09172,-0.0811 0.211666,-0.12348 0.123473,-0.0459 0.261056,-0.0459 0.141111,0 0.254,0.0423 h 0.709083 v 0.22225 h -0.458611 q 0.05997,0.0635 0.109361,0.15522 0.04939,0.0917 0.04939,0.20461 0,0.13758 -0.05292,0.24694 -0.04939,0.10937 -0.141111,0.18698 -0.08819,0.0741 -0.211666,0.11641 -0.119945,0.0388 -0.257528,0.0388 -0.06703,0 -0.144639,-0.0141 -0.07408,-0.0176 -0.144639,-0.0494 -0.134055,0.0847 -0.134055,0.19755 0,0.10231 0.09172,0.1517 0.09525,0.0459 0.264583,0.0459 h 0.384528 q 0.331611,0 0.490361,0.0917 0.162278,0.0917 0.162278,0.31045 0,0.11994 -0.06703,0.2293 -0.06703,0.10936 -0.1905,0.1905 -0.123472,0.0811 -0.299861,0.13053 -0.176389,0.0494 -0.395111,0.0494 -0.377472,0 -0.585611,-0.12347 -0.204611,-0.12348 -0.204611,-0.35278 z m 0.772583,-1.05128 q 0.165805,0 0.278694,-0.10936 0.116417,-0.10936 0.116417,-0.29633 0,-0.0882 -0.03175,-0.16228 -0.03175,-0.0741 -0.08467,-0.127 -0.05292,-0.0529 -0.127,-0.0811 -0.07055,-0.0318 -0.151694,-0.0318 -0.08114,0 -0.155222,0.0318 -0.07056,0.0282 -0.123473,0.0811 -0.05292,0.0529 -0.08467,0.127 -0.03175,0.0741 -0.03175,0.16228 0,0.18697 0.116416,0.29633 0.116417,0.10936 0.278695,0.10936 z"
         style="font-style:normal;font-variant:normal;font-weight:normal;font-stretch:normal;font-size:3.52777767px;font-family:'Source Code Pro';-inkscape-font-specification:'Source Code Pro';font-variant-ligatures:normal;font-variant-caps:normal;font-variant-numeric:normal;font-feature-settings:normal;text-align:start;letter-spacing:0px;writing-mode:lr-tb;text-anchor:start;fill:#000000;stroke-width:0.26458323"
         id="path4876"
         inkscape:connector-curvature="0" />
      <path
         d="m 76.825265,105.21169 h 0.289276 v 0.68439 l -0.0071,0.33161 q 0.123472,-0.11995 0.275166,-0.1905 0.155223,-0.0706 0.306917,-0.0706 0.172861,0 0.306917,0.0635 0.134055,0.06 0.22225,0.17639 0.09172,0.11289 0.137583,0.27517 0.04586,0.15875 0.04586,0.3563 0,0.21873 -0.0635,0.39159 -0.0635,0.17286 -0.172861,0.2928 -0.105833,0.11995 -0.246944,0.18345 -0.141111,0.06 -0.292806,0.06 -0.123472,0 -0.268111,-0.06 -0.141111,-0.0635 -0.264583,-0.17286 h -0.01058 l -0.02469,0.1905 h -0.232836 z m 0.289276,2.10961 q 0.123474,0.10936 0.246945,0.15522 0.127,0.0459 0.218722,0.0459 0.112889,0 0.208139,-0.0459 0.09525,-0.0494 0.165806,-0.13405 0.07056,-0.0882 0.109362,-0.2152 0.0388,-0.127 0.0388,-0.28575 0,-0.14111 -0.02822,-0.25753 -0.02822,-0.11641 -0.08819,-0.19755 -0.05644,-0.0847 -0.148166,-0.13053 -0.09172,-0.0459 -0.218722,-0.0459 -0.112889,0 -0.243416,0.0635 -0.127,0.06 -0.261056,0.19403 z"
         style="font-style:normal;font-variant:normal;font-weight:normal;font-stretch:normal;font-size:3.52777767px;line-height:1.25;font-family:'Source Code Pro';-inkscape-font-specification:'Source Code Pro';font-variant-ligatures:normal;font-variant-caps:normal;font-variant-numeric:normal;font-feature-settings:normal;text-align:start;letter-spacing:0px;word-spacing:0px;writing-mode:lr-tb;text-anchor:start;fill:#ffffff;fill-opacity:1;stroke:none;stroke-width:0.26458323"
         id="path4870-8"
         inkscape:connector-curvature="0" />
      <path
         d="m 78.898219,105.21169 h 0.874887 v 1.95792 q 0,0.1905 0.0882,0.27516 0.0917,0.0811 0.24695,0.0811 0.14111,0 0.32455,-0.0811 l 0.0741,0.21872 q -0.11641,0.0423 -0.21872,0.0706 -0.1023,0.0317 -0.24341,0.0317 -0.27517,0 -0.41981,-0.15522 -0.141112,-0.15522 -0.141112,-0.46214 v -1.70039 h -0.585611 z"
         style="font-style:normal;font-variant:normal;font-weight:normal;font-stretch:normal;font-size:3.52777767px;line-height:1.25;font-family:'Source Code Pro';-inkscape-font-specification:'Source Code Pro';font-variant-ligatures:normal;font-variant-caps:normal;font-variant-numeric:normal;font-feature-settings:normal;text-align:start;letter-spacing:0px;word-spacing:0px;writing-mode:lr-tb;text-anchor:start;fill:#ffffff;fill-opacity:1;stroke:none;stroke-width:0.26458323"
         id="path4872-9"
         inkscape:connector-curvature="0" />
      <path
         d="m 80.939426,106.86974 q 0,-0.21519 0.067,-0.381 0.0705,-0.16933 0.18697,-0.28575 0.11642,-0.11641 0.26811,-0.17638 0.15522,-0.06 0.32456,-0.06 0.16933,0 0.32103,0.06 0.15522,0.06 0.27163,0.17638 0.11642,0.11642 0.18345,0.28575 0.0706,0.16581 0.0706,0.381 0,0.21167 -0.0706,0.381 -0.067,0.16581 -0.18345,0.28223 -0.11641,0.11289 -0.27163,0.17286 -0.1517,0.06 -0.32103,0.06 -0.16934,0 -0.32456,-0.06 -0.15169,-0.06 -0.26811,-0.17286 -0.11642,-0.11642 -0.18697,-0.28223 -0.067,-0.16933 -0.067,-0.381 z m 0.29986,0 q 0,0.14817 0.0388,0.26812 0.0388,0.11994 0.10936,0.20813 0.0741,0.0847 0.17286,0.13406 0.10231,0.0459 0.22578,0.0459 0.12347,0 0.22225,-0.0459 0.10231,-0.0494 0.17286,-0.13406 0.0741,-0.0882 0.11289,-0.20813 0.0388,-0.11995 0.0388,-0.26812 0,-0.14816 -0.0388,-0.26811 -0.0388,-0.12347 -0.11289,-0.21166 -0.0706,-0.0882 -0.17286,-0.13406 -0.0988,-0.0494 -0.22225,-0.0494 -0.12347,0 -0.22578,0.0494 -0.0988,0.0459 -0.17286,0.13406 -0.0706,0.0882 -0.10936,0.21166 -0.0388,0.11995 -0.0388,0.26811 z"
         style="font-style:normal;font-variant:normal;font-weight:normal;font-stretch:normal;font-size:3.52777767px;line-height:1.25;font-family:'Source Code Pro';-inkscape-font-specification:'Source Code Pro';font-variant-ligatures:normal;font-variant-caps:normal;font-variant-numeric:normal;font-feature-settings:normal;text-align:start;letter-spacing:0px;word-spacing:0px;writing-mode:lr-tb;text-anchor:start;fill:#ffffff;fill-opacity:1;stroke:none;stroke-width:0.26458323"
         id="path4874-0"
         inkscape:connector-curvature="0" />
      <path
         d="m 83.347516,108.00922 q 0,0.13405 0.14111,0.21872 0.14464,0.0847 0.41981,0.0847 0.14817,0 0.26811,-0.0318 0.11994,-0.0282 0.20461,-0.0776 0.0847,-0.0494 0.127,-0.11288 0.0459,-0.0635 0.0459,-0.13053 0,-0.12347 -0.0988,-0.16581 -0.0953,-0.0423 -0.2928,-0.0423 h -0.33514 q -0.0741,0 -0.14111,-0.007 -0.0635,-0.004 -0.11995,-0.0212 -0.12347,0.067 -0.17286,0.13758 -0.0459,0.0741 -0.0459,0.14817 z m -0.25047,0.0282 q 0,-0.10231 0.0705,-0.20108 0.0741,-0.0988 0.21167,-0.17992 v -0.0141 q -0.0706,-0.0388 -0.12347,-0.10584 -0.0529,-0.067 -0.0529,-0.17638 0,-0.0811 0.0529,-0.16581 0.0529,-0.0882 0.15169,-0.15522 v -0.0141 q -0.0882,-0.067 -0.15169,-0.17639 -0.06,-0.11289 -0.06,-0.26811 0,-0.14111 0.0529,-0.254 0.0564,-0.11289 0.14816,-0.1905 0.0917,-0.0811 0.21167,-0.12348 0.12347,-0.0459 0.26106,-0.0459 0.14111,0 0.254,0.0423 h 0.70908 v 0.22225 h -0.45861 q 0.06,0.0635 0.10936,0.15522 0.0494,0.0917 0.0494,0.20461 0,0.13758 -0.0529,0.24694 -0.0494,0.10937 -0.14111,0.18698 -0.0882,0.0741 -0.21167,0.11641 -0.11994,0.0388 -0.25752,0.0388 -0.067,0 -0.14464,-0.0141 -0.0741,-0.0176 -0.14464,-0.0494 -0.13406,0.0847 -0.13406,0.19755 0,0.10231 0.0917,0.1517 0.0952,0.0459 0.26459,0.0459 h 0.38453 q 0.33161,0 0.49036,0.0917 0.16227,0.0917 0.16227,0.31045 0,0.11994 -0.067,0.2293 -0.067,0.10936 -0.1905,0.1905 -0.12347,0.0811 -0.29986,0.13053 -0.17639,0.0494 -0.39511,0.0494 -0.37747,0 -0.58561,-0.12347 -0.20461,-0.12348 -0.20461,-0.35278 z m 0.77258,-1.05128 q 0.16581,0 0.2787,-0.10936 0.11641,-0.10936 0.11641,-0.29633 0,-0.0882 -0.0318,-0.16228 -0.0318,-0.0741 -0.0847,-0.127 -0.0529,-0.0529 -0.127,-0.0811 -0.0706,-0.0318 -0.15169,-0.0318 -0.0811,0 -0.15522,0.0318 -0.0706,0.0282 -0.12347,0.0811 -0.0529,0.0529 -0.0847,0.127 -0.0318,0.0741 -0.0318,0.16228 0,0.18697 0.11641,0.29633 0.11642,0.10936 0.2787,0.10936 z"
         style="font-style:normal;font-variant:normal;font-weight:normal;font-stretch:normal;font-size:3.52777767px;line-height:1.25;font-family:'Source Code Pro';-inkscape-font-specification:'Source Code Pro';font-variant-ligatures:normal;font-variant-caps:normal;font-variant-numeric:normal;font-feature-settings:normal;text-align:start;letter-spacing:0px;word-spacing:0px;writing-mode:lr-tb;text-anchor:start;fill:#ffffff;fill-opacity:1;stroke:none;stroke-width:0.26458323"
         id="path4876-6"
         inkscape:connector-curvature="0" />
      <rect
         style="font-style:normal;font-weight:normal;font-size:10.58334446px;line-height:1.25;font-family:sans-serif;letter-spacing:0px;word-spacing:0px;fill:#d40000;fill-opacity:1;stroke:none;stroke-width:0.0737531"
         id="rect4562-9-5"
         width="10.054167"
         height="10.054167"
         x="65.352089"
         y="99.885437"
         inkscape:export-xdpi="96"
         inkscape:export-ydpi="96"
         inkscape:label="Q_rect" />
      <g
         transform="translate(46.831244,-13.758343)"
         aria-label="Q"
         style="font-style:normal;font-variant:normal;font-weight:900;font-stretch:normal;font-size:10.58334446px;line-height:1.25;font-family:'Source Code Pro';-inkscape-font-specification:'Source Code Pro, Heavy';font-variant-ligatures:normal;font-variant-caps:normal;font-variant-numeric:normal;font-feature-settings:normal;text-align:start;letter-spacing:0px;word-spacing:0px;writing-mode:lr-tb;text-anchor:start;fill:#000000;fill-opacity:1;stroke:none;stroke-width:0.26458323"
         id="text3723-3-5"
         inkscape:label="Q">
        <path
           d="m 23.425341,116.34293 q -0.3556,0 -0.5588,0.41487 -0.194733,0.4064 -0.194733,1.15993 0,0.75353 0.194733,1.1938 0.2032,0.4318 0.5588,0.4318 0.3556,0 0.550333,-0.4318 0.2032,-0.44027 0.2032,-1.1938 0,-0.75353 -0.2032,-1.15993 -0.194733,-0.41487 -0.550333,-0.41487 z m 2.489199,5.70653 q -0.143933,0.0931 -0.364067,0.14393 -0.220133,0.0593 -0.516466,0.0593 -0.846666,0 -1.430866,-0.4318 -0.5842,-0.4318 -0.855133,-1.12607 -0.719667,-0.2286 -1.143,-0.9398 -0.423333,-0.7112 -0.423333,-1.83726 0,-0.67733 0.160867,-1.20227 0.160866,-0.5334 0.4572,-0.889 0.296333,-0.36406 0.711199,-0.55033 0.414867,-0.18627 0.9144,-0.18627 0.499533,0 0.9144,0.18627 0.414866,0.18627 0.711199,0.55033 0.296333,0.36407 0.4572,0.889 0.160867,0.52494 0.160867,1.20227 0,1.05833 -0.381,1.7526 -0.372533,0.69426 -1.024466,0.9652 0.0762,0.14393 0.177799,0.2286 0.110067,0.0931 0.237067,0.14393 0.127,0.0508 0.262467,0.0677 0.135466,0.0254 0.262466,0.0254 0.127,0 0.245533,-0.0423 0.118534,-0.0339 0.211667,-0.0762 z"
           style="font-style:normal;font-variant:normal;font-weight:900;font-stretch:normal;font-size:8.46666336px;font-family:'Source Code Pro';-inkscape-font-specification:'Source Code Pro Heavy';font-variant-ligatures:normal;font-variant-caps:normal;font-variant-numeric:normal;font-feature-settings:normal;text-align:start;writing-mode:lr-tb;text-anchor:start;fill:#ffffff;stroke-width:0.26458323"
           inkscape:connector-curvature="0"
           id="path4626-0-3" />
      </g>
    </g>
    <rect
       style="font-style:normal;font-weight:normal;font-size:10.58334446px;line-height:1.25;font-family:sans-serif;letter-spacing:0px;word-spacing:0px;fill:#ff0000;fill-opacity:1;stroke:none;stroke-width:0.0737531"
       id="rect4562-2-6"
       width="10.054167"
       height="10.054167"
       x="-15.077193"
       y="88.577766"
       inkscape:export-xdpi="96"
       inkscape:export-ydpi="96"
       inkscape:label="Q_rect" />
    <g
       transform="translate(-33.598036,-25.066009)"
       aria-label="Q"
       style="font-style:normal;font-variant:normal;font-weight:900;font-stretch:normal;font-size:10.58334446px;line-height:1.25;font-family:'Source Code Pro';-inkscape-font-specification:'Source Code Pro, Heavy';font-variant-ligatures:normal;font-variant-caps:normal;font-variant-numeric:normal;font-feature-settings:normal;text-align:start;letter-spacing:0px;word-spacing:0px;writing-mode:lr-tb;text-anchor:start;fill:#000000;fill-opacity:1;stroke:none;stroke-width:0.26458323"
       id="text3723-9-6"
       inkscape:label="Q">
      <path
         d="m 23.425341,116.34293 q -0.3556,0 -0.5588,0.41487 -0.194733,0.4064 -0.194733,1.15993 0,0.75353 0.194733,1.1938 0.2032,0.4318 0.5588,0.4318 0.3556,0 0.550333,-0.4318 0.2032,-0.44027 0.2032,-1.1938 0,-0.75353 -0.2032,-1.15993 -0.194733,-0.41487 -0.550333,-0.41487 z m 2.489199,5.70653 q -0.143933,0.0931 -0.364067,0.14393 -0.220133,0.0593 -0.516466,0.0593 -0.846666,0 -1.430866,-0.4318 -0.5842,-0.4318 -0.855133,-1.12607 -0.719667,-0.2286 -1.143,-0.9398 -0.423333,-0.7112 -0.423333,-1.83726 0,-0.67733 0.160867,-1.20227 0.160866,-0.5334 0.4572,-0.889 0.296333,-0.36406 0.711199,-0.55033 0.414867,-0.18627 0.9144,-0.18627 0.499533,0 0.9144,0.18627 0.414866,0.18627 0.711199,0.55033 0.296333,0.36407 0.4572,0.889 0.160867,0.52494 0.160867,1.20227 0,1.05833 -0.381,1.7526 -0.372533,0.69426 -1.024466,0.9652 0.0762,0.14393 0.177799,0.2286 0.110067,0.0931 0.237067,0.14393 0.127,0.0508 0.262467,0.0677 0.135466,0.0254 0.262466,0.0254 0.127,0 0.245533,-0.0423 0.118534,-0.0339 0.211667,-0.0762 z"
         style="font-style:normal;font-variant:normal;font-weight:900;font-stretch:normal;font-size:8.46666336px;font-family:'Source Code Pro';-inkscape-font-specification:'Source Code Pro Heavy';font-variant-ligatures:normal;font-variant-caps:normal;font-variant-numeric:normal;font-feature-settings:normal;text-align:start;writing-mode:lr-tb;text-anchor:start;fill:#ffffff;stroke-width:0.26458323"
         inkscape:connector-curvature="0"
         id="path4626-3-9" />
    </g>
  </g>
  <rect
     style="fill:#d40000;stroke-width:0.0737531"
     id="rect4562-9"
     width="10.054167"
     height="10.054167"
     x="47.234112"
     y="12.383277"
     inkscape:export-xdpi="96"
     inkscape:export-ydpi="96"
     inkscape:label="Q_rect" />
  <g
     transform="translate(28.713275,-101.26049)"
     aria-label="Q"
     style="font-style:normal;font-variant:normal;font-weight:900;font-stretch:normal;font-size:10.58334446px;line-height:1.25;font-family:'Source Code Pro';-inkscape-font-specification:'Source Code Pro, Heavy';font-variant-ligatures:normal;font-variant-caps:normal;font-variant-numeric:normal;font-feature-settings:normal;text-align:start;letter-spacing:0px;word-spacing:0px;writing-mode:lr-tb;text-anchor:start;fill:#000000;fill-opacity:1;stroke:none;stroke-width:0.26458323"
     id="text3723-3"
     inkscape:label="Q">
    <path
       d="m 23.425341,116.34293 q -0.3556,0 -0.5588,0.41487 -0.194733,0.4064 -0.194733,1.15993 0,0.75353 0.194733,1.1938 0.2032,0.4318 0.5588,0.4318 0.3556,0 0.550333,-0.4318 0.2032,-0.44027 0.2032,-1.1938 0,-0.75353 -0.2032,-1.15993 -0.194733,-0.41487 -0.550333,-0.41487 z m 2.489199,5.70653 q -0.143933,0.0931 -0.364067,0.14393 -0.220133,0.0593 -0.516466,0.0593 -0.846666,0 -1.430866,-0.4318 -0.5842,-0.4318 -0.855133,-1.12607 -0.719667,-0.2286 -1.143,-0.9398 -0.423333,-0.7112 -0.423333,-1.83726 0,-0.67733 0.160867,-1.20227 0.160866,-0.5334 0.4572,-0.889 0.296333,-0.36406 0.711199,-0.55033 0.414867,-0.18627 0.9144,-0.18627 0.499533,0 0.9144,0.18627 0.414866,0.18627 0.711199,0.55033 0.296333,0.36407 0.4572,0.889 0.160867,0.52494 0.160867,1.20227 0,1.05833 -0.381,1.7526 -0.372533,0.69426 -1.024466,0.9652 0.0762,0.14393 0.177799,0.2286 0.110067,0.0931 0.237067,0.14393 0.127,0.0508 0.262467,0.0677 0.135466,0.0254 0.262466,0.0254 0.127,0 0.245533,-0.0423 0.118534,-0.0339 0.211667,-0.0762 z"
       style="font-style:normal;font-variant:normal;font-weight:900;font-stretch:normal;font-size:8.46666336px;font-family:'Source Code Pro';-inkscape-font-specification:'Source Code Pro Heavy';font-variant-ligatures:normal;font-variant-caps:normal;font-variant-numeric:normal;font-feature-settings:normal;text-align:start;writing-mode:lr-tb;text-anchor:start;fill:#ffffff;stroke-width:0.26458323"
       inkscape:connector-curvature="0"
       id="path4626-0" />
  </g>
</svg>
