<?xml version="1.0" encoding="UTF-8" standalone="no"?>
<!-- Created with Inkscape (http://www.inkscape.org/) -->

<svg
   width="34.179623mm"
   height="5.0000005mm"
   viewBox="0 0 34.179623 5.0000005"
   version="1.1"
   id="svg1319"
   sodipodi:docname="quantylab_logo_20220428.svg"
   inkscape:version="1.1 (c68e22c387, 2021-05-23)"
   xmlns:inkscape="http://www.inkscape.org/namespaces/inkscape"
   xmlns:sodipodi="http://sodipodi.sourceforge.net/DTD/sodipodi-0.dtd"
   xmlns="http://www.w3.org/2000/svg"
   xmlns:svg="http://www.w3.org/2000/svg">
  <sodipodi:namedview
     id="namedview1321"
     pagecolor="#ffffff"
     bordercolor="#666666"
     borderopacity="1.0"
     inkscape:pageshadow="2"
     inkscape:pageopacity="0.0"
     inkscape:pagecheckerboard="0"
     inkscape:document-units="mm"
     showgrid="false"
     inkscape:snap-object-midpoints="true"
     inkscape:zoom="4.3994184"
     inkscape:cx="-3.523193"
     inkscape:cy="88.193476"
     inkscape:window-width="3840"
     inkscape:window-height="2066"
     inkscape:window-x="-11"
     inkscape:window-y="-11"
     inkscape:window-maximized="1"
     inkscape:current-layer="layer1"
     fit-margin-top="0"
     fit-margin-left="0"
     fit-margin-right="0"
     fit-margin-bottom="0" />
  <defs
     id="defs1316">
    <rect
       x="394.36612"
       y="69.509911"
       width="344.02808"
       height="99.587082"
       id="rect1034" />
    <rect
       x="383.66669"
       y="81.58107"
       width="318.78839"
       height="79.559921"
       id="rect1028" />
    <rect
       x="374.61331"
       y="76.094177"
       width="347.32022"
       height="103.97659"
       id="rect1022" />
  </defs>
  <g
     inkscape:label="레이어 1"
     inkscape:groupmode="layer"
     id="layer1"
     transform="translate(-15.97,-145.65186)">
    <g
       style="font-style:normal;font-weight:normal;font-size:30.6667px;line-height:1.25;font-family:sans-serif;letter-spacing:3px;word-spacing:0px;fill:#000000;fill-opacity:1;stroke:none"
       id="text940"
       aria-label="QUANTYLAB"
       transform="matrix(0.12939945,0,0,0.12939945,-42.86399,133.82783)"
       inkscape:export-filename="D:\Naver MYBOX\21_Quantylab\디자인\logo\quantylab_logo_50.png"
       inkscape:export-xdpi="253.9991"
       inkscape:export-ydpi="253.9991">
      <path
         id="path850"
         style="font-style:normal;font-variant:normal;font-weight:normal;font-stretch:normal;font-size:30.6667px;font-family:'Fredoka One';-inkscape-font-specification:'Fredoka One'"
         d="m 522.13629,115.81758 q 1.41067,0.95066 2.024,1.38 1.10401,0.828 1.10401,1.59467 0,0.736 -0.92001,2.08533 -0.92,1.34934 -1.87066,1.34934 -0.58267,0 -1.77867,-0.828 -0.15334,-0.092 -0.85867,-0.58267 -0.70533,-0.49067 -1.104,-0.736 -2.852,2.208 -6.40934,2.208 -4.75334,0 -8.03468,-3.37334 -3.25067,-3.37333 -3.25067,-8.03467 0,-2.54534 0.92,-4.75334 0.92,-2.23867 2.45334,-3.74134 1.53333,-1.50267 3.52667,-2.36133 1.99334,-0.858672 4.10934,-0.858672 4.53867,0 7.88134,3.281342 3.34267,3.28133 3.34267,8.31067 0,2.54534 -1.13467,5.06001 z m -15.67068,-5.09068 q 0,2.72934 1.748,4.44668 1.77867,1.68666 3.956,1.68666 2.17734,0 3.92534,-1.656 1.748,-1.656 1.748,-4.44667 0,-2.79067 -1.77866,-4.47734 -1.74801,-1.68667 -3.92534,-1.68667 -2.17734,0 -3.92534,1.71734 -1.748,1.68667 -1.748,4.416 z" />
      <path
         id="path852"
         style="font-style:normal;font-variant:normal;font-weight:normal;font-stretch:normal;font-size:30.6667px;font-family:'Fredoka One';-inkscape-font-specification:'Fredoka One'"
         d="m 543.44479,100.26956 q 0.30667,-0.490668 0.88934,-0.674668 0.58266,-0.184 1.44133,-0.184 0.88934,0 1.41067,0.153333 0.52133,0.153334 0.79733,0.368001 0.276,0.214664 0.39867,0.644004 0.184,0.52133 0.184,1.59466 v 9.26135 q 0,4.048 -2.51467,7.36001 -1.22667,1.564 -3.15867,2.54533 -1.932,0.95067 -4.29334,0.95067 -2.33067,0 -4.26267,-0.98133 -1.90133,-0.98134 -3.09733,-2.57601 -2.48401,-3.25067 -2.48401,-7.36 v -9.23068 q 0,-0.736 0.0307,-1.07334 0.0613,-0.368 0.30667,-0.828 0.24533,-0.459998 0.828,-0.643998 0.58266,-0.184 1.564,-0.184 0.98133,0 1.564,0.184 0.58267,0.184 0.79733,0.643998 0.368,0.70534 0.368,1.932 v 9.20002 q 0,1.87066 0.92001,3.55733 0.46,0.85867 1.38,1.38 0.92,0.52134 2.17733,0.52134 2.23867,0 3.34267,-1.656 1.104,-1.65601 1.104,-3.83334 v -9.38401 q 0,-1.196 0.30667,-1.68667 z" />
      <path
         id="path854"
         style="font-style:normal;font-variant:normal;font-weight:normal;font-stretch:normal;font-size:30.6667px;font-family:'Fredoka One';-inkscape-font-specification:'Fredoka One'"
         d="m 565.45144,101.03623 8.28001,17.11202 q 0.52133,1.04266 0.52133,1.564 0,1.104 -1.77867,1.99333 -1.04267,0.52134 -1.656,0.52134 -0.58267,0 -0.98134,-0.276 -0.368,-0.276 -0.552,-0.58267 -0.15333,-0.30667 -0.46,-0.92 l -1.59466,-3.31201 h -8.49468 l -1.59467,3.31201 q -0.30667,0.61333 -0.49067,0.88933 -0.15333,0.276 -0.552,0.58267 -0.368,0.276 -0.98133,0.276 -0.58267,0 -1.62534,-0.52133 -1.77867,-0.85867 -1.77867,-1.96267 0,-0.52134 0.52134,-1.564 l 8.28001,-17.14269 q 0.33733,-0.70533 1.012,-1.134668 0.70533,-0.429333 1.472,-0.429333 1.656,0 2.45334,1.594671 z m -2.48401,7.36001 -2.024,4.20133 h 4.07867 z" />
      <path
         id="path856"
         style="font-style:normal;font-variant:normal;font-weight:normal;font-stretch:normal;font-size:30.6667px;font-family:'Fredoka One';-inkscape-font-specification:'Fredoka One'"
         d="m 593.46397,100.39223 q 0.30666,-0.552004 0.88933,-0.736005 0.58267,-0.184 1.44134,-0.184 0.88933,0 1.41066,0.153334 0.552,0.153333 0.79734,0.368 0.276,0.214671 0.39866,0.644001 0.18401,0.49067 0.18401,1.564 v 17.02002 q 0,0.736 -0.0613,1.07333 -0.0307,0.33734 -0.276,0.79734 -0.42933,0.828 -2.392,0.828 -1.196,0 -1.656,-0.184 -0.46,-0.184 -0.76667,-0.58267 -6.90001,-9.20001 -9.07734,-12.02134 v 10.08934 q 0,0.736 -0.0613,1.07333 -0.0307,0.33734 -0.276,0.79734 -0.42933,0.828 -2.392,0.828 -1.90134,0 -2.33067,-0.828 -0.24533,-0.46 -0.30667,-0.828 -0.0307,-0.368 -0.0307,-1.07334 v -17.11202 q 0,-1.16533 0.276,-1.68666 0.30666,-0.552004 0.88933,-0.736005 0.58267,-0.184 1.50267,-0.184 0.92,0 1.44133,0.184 0.55201,0.153334 0.76667,0.368005 0.12267,0.092 0.70534,0.79733 6.47067,8.80134 8.64801,11.62268 v -10.36535 q 0,-1.16533 0.276,-1.68666 z" />
      <path
         id="path858"
         style="font-style:normal;font-variant:normal;font-weight:normal;font-stretch:normal;font-size:30.6667px;font-family:'Fredoka One';-inkscape-font-specification:'Fredoka One'"
         d="m 605.5322,99.410892 h 17.05069 q 0.98133,0 1.44133,0.245333 0.46,0.214667 0.61334,0.705335 0.15333,0.49067 0.15333,1.288 0,0.79734 -0.15333,1.288 -0.15334,0.46 -0.52134,0.644 -0.552,0.276 -1.564,0.276 h -5.85734 v 15.42535 q 0,0.70534 -0.0613,1.04267 -0.0307,0.33734 -0.276,0.79734 -0.21467,0.42933 -0.79734,0.61333 -0.58266,0.184 -1.53333,0.184 -0.95067,0 -1.53334,-0.184 -0.552,-0.184 -0.79733,-0.61333 -0.21467,-0.46 -0.276,-0.79734 -0.0307,-0.368 -0.0307,-1.07333 v -15.39469 h -5.888 q -0.98134,0 -1.44134,-0.21466 -0.46,-0.24534 -0.61333,-0.736 -0.15334,-0.49067 -0.15334,-1.28801 0,-0.79733 0.15334,-1.25733 0.15333,-0.490668 0.52133,-0.674668 0.552,-0.276 1.564,-0.276 z" />
      <path
         id="path860"
         style="font-style:normal;font-variant:normal;font-weight:normal;font-stretch:normal;font-size:30.6667px;font-family:'Fredoka One';-inkscape-font-specification:'Fredoka One'"
         d="m 647.30929,99.870892 q 1.50267,1.042668 1.50267,2.023998 0,0.58267 -0.70533,1.62534 l -6.62401,9.90534 v 5.85734 q 0,0.70534 -0.0613,1.07334 -0.0307,0.33733 -0.27601,0.79733 -0.24533,0.46 -0.828,0.644 -0.58266,0.184 -1.564,0.184 -0.98133,0 -1.564,-0.184 -0.58267,-0.184 -0.828,-0.644 -0.24533,-0.49066 -0.30667,-0.828 -0.0307,-0.368 -0.0307,-1.104 v -5.79601 l -6.62401,-9.90534 q -0.70534,-1.04267 -0.70534,-1.62534 0,-0.98133 1.34934,-1.87066 1.34933,-0.920005 1.932,-0.920005 0.58267,0 0.92,0.245333 0.52134,0.337334 1.104,1.257332 l 4.75334,7.60534 4.75334,-7.60534 q 0.58267,-0.919998 1.012,-1.195998 0.42934,-0.306667 0.98134,-0.306667 0.58266,0 1.80933,0.766667 z" />
      <path
         id="path862"
         style="font-style:normal;font-variant:normal;font-weight:normal;font-stretch:normal;font-size:30.6667px;font-family:'Fredoka One';-inkscape-font-specification:'Fredoka One'"
         d="m 658.91273,117.38158 h 8.34134 q 1.012,0 1.472,0.24533 0.46001,0.21467 0.61334,0.70534 0.15333,0.49066 0.15333,1.31866 0,0.79734 -0.15333,1.28801 -0.15333,0.49066 -0.52134,0.67466 -0.58266,0.30667 -1.59466,0.30667 h -11.04002 q -2.14666,0 -2.51467,-1.16533 -0.184,-0.49067 -0.184,-1.56401 v -17.05068 q 0,-0.70534 0.0307,-1.04267 0.0613,-0.368 0.30667,-0.828 0.42933,-0.828001 2.392,-0.828001 2.14667,0 2.54534,1.134671 0.15333,0.52133 0.15333,1.59466 z" />
      <path
         id="path864"
         style="font-style:normal;font-variant:normal;font-weight:normal;font-stretch:normal;font-size:30.6667px;font-family:'Fredoka One';-inkscape-font-specification:'Fredoka One'"
         d="m 687.48541,101.03623 8.28001,17.11202 q 0.52133,1.04266 0.52133,1.564 0,1.104 -1.77867,1.99333 -1.04266,0.52134 -1.656,0.52134 -0.58266,0 -0.98133,-0.276 -0.368,-0.276 -0.552,-0.58267 -0.15334,-0.30667 -0.46,-0.92 l -1.59467,-3.31201 h -8.49468 l -1.59467,3.31201 q -0.30666,0.61333 -0.49066,0.88933 -0.15334,0.276 -0.552,0.58267 -0.368,0.276 -0.98134,0.276 -0.58267,0 -1.62533,-0.52133 -1.77867,-0.85867 -1.77867,-1.96267 0,-0.52134 0.52133,-1.564 l 8.28001,-17.14269 q 0.33734,-0.70533 1.012,-1.134668 0.70534,-0.429333 1.472,-0.429333 1.65601,0 2.45334,1.594671 z m -2.484,7.36001 -2.024,4.20133 h 4.07867 z" />
      <path
         id="path866"
         style="font-style:normal;font-variant:normal;font-weight:normal;font-stretch:normal;font-size:30.6667px;font-family:'Fredoka One';-inkscape-font-specification:'Fredoka One'"
         d="m 717.0006,109.86824 q 1.80934,2.14667 1.80934,4.81467 -0.0613,3.06667 -2.11601,5.152 -2.024,2.05467 -4.93734,2.05467 h -8.06534 q -2.14667,0 -2.51467,-1.16533 -0.184,-0.52134 -0.184,-1.59467 v -17.02002 q 0,-0.736 0.0307,-1.07333 0.0613,-0.33734 0.30667,-0.79734 0.42933,-0.827998 2.392,-0.827998 h 7.72801 q 2.82133,0 4.72267,1.962668 1.99334,1.99334 1.99334,4.78401 0,2.024 -1.16534,3.71067 z m -3.61867,4.508 q 0,-0.736 -0.184,-1.16533 -0.15333,-0.42934 -0.552,-0.61334 -0.61333,-0.24533 -1.71734,-0.24533 -1.104,0 -1.656,-0.42933 -0.552,-0.42934 -0.552,-1.74801 0,-1.34933 0.552,-1.77866 0.58267,-0.42934 1.90134,-0.42934 1.22667,0 1.472,-0.644 0.092,-0.33733 0.092,-1.104 0,-0.76667 -0.52133,-1.07334 -0.49067,-0.30666 -1.50267,-0.30666 h -4.29334 v 11.62268 h 5.02934 q 1.932,0 1.932,-2.08534 z" />
      <g
         id="text860"
         style="font-size:40px" />
      <g
         id="text864"
         style="font-size:40px" />
    </g>
    <text
       xml:space="preserve"
       id="text1020"
       style="font-style:normal;font-weight:normal;font-size:40px;line-height:1.25;font-family:sans-serif;white-space:pre;shape-inside:url(#rect1022);fill:#000000;fill-opacity:1;stroke:none"
       inkscape:export-xdpi="192"
       inkscape:export-ydpi="192"
       transform="matrix(0.26458333,0,0,0.26458333,-105.81228,53.296672)" />
    <text
       xml:space="preserve"
       id="text1026"
       style="font-style:normal;font-weight:normal;font-size:40px;line-height:1.25;font-family:sans-serif;white-space:pre;shape-inside:url(#rect1028);fill:#000000;fill-opacity:1;stroke:none"
       inkscape:export-xdpi="192"
       inkscape:export-ydpi="192"
       transform="matrix(0.26458333,0,0,0.26458333,-105.81228,53.296672)" />
    <text
       xml:space="preserve"
       id="text1032"
       style="font-style:normal;font-weight:normal;font-size:40px;line-height:1.25;font-family:sans-serif;white-space:pre;shape-inside:url(#rect1034);fill:#000000;fill-opacity:1;stroke:none"
       inkscape:export-xdpi="192"
       inkscape:export-ydpi="192"
       transform="matrix(0.26458333,0,0,0.26458333,-105.81228,53.296672)" />
    <g
       id="g6946"
       transform="matrix(0.92216887,0,0,0.92216887,-0.6086542,71.876851)"
       inkscape:export-filename="D:\Naver MYBOX\21_Quantylab\디자인\logo\quantylab_logo_50.png"
       inkscape:export-xdpi="253.9991"
       inkscape:export-ydpi="253.9991">
      <path
         id="rect2725"
         style="fill:#d40000;stroke-width:0"
         d="m 17.977894,82.712631 h 2.711 v 2.711001 h -2.711 z" />
      <path
         id="rect2727"
         style="fill:#d40000;stroke-width:0"
         d="m 20.688894,80.001633 h 2.711 v 2.711 h -2.711 z" />
      <path
         id="path2979"
         style="fill:#d40000;stroke-width:0"
         d="m 23.399894,82.712631 a 2.7109997,2.7109997 0 0 1 -2.711,2.711 2.7109997,2.7109997 0 0 1 -2.710999,-2.711 2.7109997,2.7109997 0 0 1 2.710999,-2.711 2.7109997,2.7109997 0 0 1 2.711,2.711 z" />
    </g>
    <path
       style="fill:none;stroke:#ffffff;stroke-width:0.5;stroke-linecap:round;stroke-linejoin:round;stroke-miterlimit:4;stroke-dasharray:none;stroke-opacity:1"
       d="m 17.114327,148.8297 0.677836,-0.67783 0.677837,0.67783 1.355672,-1.35567"
       id="path7000"
       inkscape:export-filename="D:\Naver MYBOX\21_Quantylab\디자인\logo\quantylab_logo_50.png"
       inkscape:export-xdpi="253.9991"
       inkscape:export-ydpi="253.9991"
       sodipodi:nodetypes="cccc" />
  </g>
</svg>
