<?xml version="1.0" encoding="UTF-8" standalone="no"?>
<!-- Created with Inkscape (http://www.inkscape.org/) -->

<svg
   width="32.543442mm"
   height="5.0000005mm"
   viewBox="0 0 32.543442 5.0000005"
   version="1.1"
   id="svg1319"
   sodipodi:docname="quantylab_npc_20221206.svg"
   inkscape:version="1.1 (c68e22c387, 2021-05-23)"
   xmlns:inkscape="http://www.inkscape.org/namespaces/inkscape"
   xmlns:sodipodi="http://sodipodi.sourceforge.net/DTD/sodipodi-0.dtd"
   xmlns:xlink="http://www.w3.org/1999/xlink"
   xmlns="http://www.w3.org/2000/svg"
   xmlns:svg="http://www.w3.org/2000/svg">
  <sodipodi:namedview
     id="namedview1321"
     pagecolor="#ffffff"
     bordercolor="#666666"
     borderopacity="1.0"
     inkscape:pageshadow="2"
     inkscape:pageopacity="0.0"
     inkscape:pagecheckerboard="0"
     inkscape:document-units="mm"
     showgrid="false"
     inkscape:snap-object-midpoints="true"
     inkscape:zoom="4.3994184"
     inkscape:cx="197.18516"
     inkscape:cy="93.307788"
     inkscape:window-width="3840"
     inkscape:window-height="2089"
     inkscape:window-x="-8"
     inkscape:window-y="108"
     inkscape:window-maximized="1"
     inkscape:current-layer="text940"
     fit-margin-top="0"
     fit-margin-left="0"
     fit-margin-right="0"
     fit-margin-bottom="0"
     inkscape:snap-center="false"
     inkscape:snap-page="false" />
  <defs
     id="defs1316">
    <linearGradient
       inkscape:collect="always"
       id="linearGradient20264">
      <stop
         style="stop-color:#d40000;stop-opacity:1;"
         offset="0"
         id="stop20260" />
      <stop
         style="stop-color:#000000;stop-opacity:1"
         offset="1"
         id="stop20262" />
    </linearGradient>
    <rect
       x="394.36612"
       y="69.509911"
       width="344.02808"
       height="99.587082"
       id="rect1034" />
    <rect
       x="383.66669"
       y="81.58107"
       width="318.78839"
       height="79.559921"
       id="rect1028" />
    <rect
       x="374.61331"
       y="76.094177"
       width="347.32022"
       height="103.97659"
       id="rect1022" />
    <linearGradient
       inkscape:collect="always"
       xlink:href="#linearGradient20264"
       id="linearGradient39152"
       x1="435.92111"
       y1="220.94759"
       x2="838.06158"
       y2="220.94759"
       gradientUnits="userSpaceOnUse" />
    <linearGradient
       inkscape:collect="always"
       xlink:href="#linearGradient20264"
       id="linearGradient39234"
       gradientUnits="userSpaceOnUse"
       x1="435.92111"
       y1="220.94759"
       x2="838.06158"
       y2="220.94759" />
    <linearGradient
       inkscape:collect="always"
       xlink:href="#linearGradient20264"
       id="linearGradient39236"
       gradientUnits="userSpaceOnUse"
       x1="435.92111"
       y1="220.94759"
       x2="838.06158"
       y2="220.94759" />
    <linearGradient
       inkscape:collect="always"
       xlink:href="#linearGradient20264"
       id="linearGradient39238"
       gradientUnits="userSpaceOnUse"
       x1="435.92111"
       y1="220.94759"
       x2="838.06158"
       y2="220.94759" />
    <linearGradient
       inkscape:collect="always"
       xlink:href="#linearGradient20264"
       id="linearGradient39240"
       gradientUnits="userSpaceOnUse"
       x1="435.92111"
       y1="220.94759"
       x2="838.06158"
       y2="220.94759" />
    <linearGradient
       inkscape:collect="always"
       xlink:href="#linearGradient20264"
       id="linearGradient39242"
       gradientUnits="userSpaceOnUse"
       x1="435.92111"
       y1="220.94759"
       x2="838.06158"
       y2="220.94759" />
    <linearGradient
       inkscape:collect="always"
       xlink:href="#linearGradient20264"
       id="linearGradient39244"
       gradientUnits="userSpaceOnUse"
       x1="435.92111"
       y1="220.94759"
       x2="838.06158"
       y2="220.94759" />
    <linearGradient
       inkscape:collect="always"
       xlink:href="#linearGradient20264"
       id="linearGradient39246"
       gradientUnits="userSpaceOnUse"
       x1="435.92111"
       y1="220.94759"
       x2="838.06158"
       y2="220.94759" />
  </defs>
  <g
     inkscape:label="레이어 1"
     inkscape:groupmode="layer"
     id="layer1"
     transform="translate(-15.97,-145.65186)">
    <g
       style="font-style:normal;font-weight:normal;font-size:30.6667px;line-height:1.25;font-family:sans-serif;letter-spacing:3px;word-spacing:0px;fill:#000000;fill-opacity:1;stroke:none"
       id="text940"
       aria-label="QUANTYLAB"
       transform="matrix(0.06610598,0,0,0.06610598,-7.1651051,133.56901)"
       inkscape:export-filename="D:\Naver MYBOX\21_Quantylab\디자인\logo\quantylab_logo_50.png"
       inkscape:export-xdpi="253.9991"
       inkscape:export-ydpi="253.9991">
      <g
         id="text860"
         style="font-size:40px" />
      <g
         id="text864"
         style="font-size:40px" />
      <g
         aria-label="프리미엄콘텐츠"
         id="text22668"
         style="font-size:74.7117px;letter-spacing:-4.00241px;fill:url(#linearGradient39152);fill-opacity:1;stroke-width:4.00241"
         transform="translate(4.200341,-0.34954065)">
        <path
           d="m 488.21931,194.27551 h -50.80396 v 11.28147 h 50.80396 z m -6.49992,14.0458 h -14.0458 l -0.59769,10.31022 h -8.51714 l -0.59769,-10.31022 h -14.0458 l 0.59769,10.31022 h -7.09761 v 11.20675 h 50.80396 v -11.20675 h -7.09761 z m -45.79827,28.68929 v 11.20676 h 53.79242 V 237.0106 Z"
           style="font-stretch:expanded;font-family:'Black Han Sans';-inkscape-font-specification:'Black Han Sans Expanded';fill:url(#linearGradient39234);fill-opacity:1"
           id="path38803" />
        <path
           d="m 546.9746,193.67782 h -14.0458 v 56.78089 h 14.0458 z m -20.54572,0.74711 H 494.6764 v 11.20676 h 17.78139 v 9.71252 H 494.6764 v 32.87315 h 33.24671 V 237.0106 H 508.7222 v -10.45963 h 17.70668 z"
           style="font-stretch:expanded;font-family:'Black Han Sans';-inkscape-font-specification:'Black Han Sans Expanded';fill:url(#linearGradient39236);fill-opacity:1"
           id="path38805" />
        <path
           d="m 590.33938,193.52839 v 56.93032 h 14.0458 v -56.93032 z m -5.0804,54.68897 v -53.94185 h -33.32141 v 53.94185 z M 571.21319,237.0106 h -5.22982 v -31.45362 h 5.22982 z"
           style="font-stretch:expanded;font-family:'Black Han Sans';-inkscape-font-specification:'Black Han Sans Expanded';fill:url(#linearGradient39238);fill-opacity:1"
           id="path38807" />
        <path
           d="m 661.79569,193.67782 v 31.67776 h -14.0458 V 215.2695 h -5.22982 q -1.2701,5.08039 -5.52867,7.84473 -4.18385,2.68962 -10.83319,2.68962 -7.91944,0 -12.40215,-3.8103 -4.40799,-3.88501 -4.40799,-10.75848 v -2.98847 q 0,-6.87348 4.40799,-10.68377 4.48271,-3.88501 12.40215,-3.88501 6.49991,0 10.68377,2.61491 4.18385,2.61491 5.52867,7.39646 h 5.37924 v -10.01137 z m -33.02257,13.82166 q 0,-1.2701 -0.67241,-1.9425 -0.6724,-0.67241 -1.9425,-0.67241 -1.19539,0 -1.94251,0.67241 -0.6724,0.6724 -0.6724,1.9425 v 4.4827 q 0,1.19539 0.6724,1.94251 0.74712,0.6724 1.94251,0.6724 1.2701,0 1.9425,-0.6724 0.67241,-0.74712 0.67241,-1.94251 z m -17.93081,42.95923 V 228.0452 h 50.95338 v 22.41351 z m 14.0458,-12.62628 v 2.83905 h 22.86178 v -2.83905 z"
           style="font-stretch:expanded;font-family:'Black Han Sans';-inkscape-font-specification:'Black Han Sans Expanded';fill:url(#linearGradient39240);fill-opacity:1"
           id="path38809" />
        <path
           d="m 705.01097,219.67749 v -2.98847 h -36.75816 v -9.33896 h 36.75816 v -2.76433 h -36.75816 v -10.1608 h 50.80396 l -0.74712,25.25256 z m -6.57463,2.01722 h 22.11467 v 10.45963 h -53.79243 v -10.45963 h 17.63196 v -3.51145 h 14.0458 z m -16.13773,13.29868 v 5.00568 h 36.75816 v 10.45964 h -50.80396 v -15.46532 z"
           style="font-stretch:expanded;font-family:'Black Han Sans';-inkscape-font-specification:'Black Han Sans Expanded';fill:url(#linearGradient39242);fill-opacity:1"
           id="path38811" />
        <path
           d="m 763.76625,193.67782 h -13.29868 v 11.72973 h -3.13789 v 11.20676 h 3.13789 v 15.3159 h 13.29868 z m 15.54003,0 H 766.0076 v 39.74662 h 13.29868 z m -53.79242,0.74711 v 34.74095 h 21.81582 v -9.71253 h -8.51714 v -2.83904 h 6.27579 v -9.71252 h -6.27579 v -2.76433 h 6.27579 v -9.71253 z m 16.95956,37.50528 h -13.97109 v 18.5285 h 50.80395 v -10.8332 h -36.83286 z"
           style="font-stretch:expanded;font-family:'Black Han Sans';-inkscape-font-specification:'Black Han Sans Expanded';fill:url(#linearGradient39244);fill-opacity:1"
           id="path38813" />
        <path
           d="m 784.26914,219.00508 q 6.72405,-0.52298 11.58031,-3.66087 4.93098,-3.13789 7.0229,-8.21829 h -17.10898 v -11.20675 h 17.63197 v -4.4827 h 15.54003 v 4.4827 h 17.63196 v 11.20675 h -17.10898 q 2.09193,5.0804 6.94819,8.21829 4.93097,3.13789 11.65502,3.66087 l -2.98846,10.45964 q -7.47117,-0.59769 -13.59753,-3.36202 -6.12636,-2.83905 -10.31022,-7.39646 -4.18385,4.55741 -10.31021,7.39646 -6.12636,2.76433 -13.59753,3.36202 z m 0,29.21228 V 237.0106 h 53.79242 v 11.20676 z"
           style="font-stretch:expanded;font-family:'Black Han Sans';-inkscape-font-specification:'Black Han Sans Expanded';fill:url(#linearGradient39246);fill-opacity:1"
           id="path38815" />
      </g>
    </g>
    <text
       xml:space="preserve"
       id="text1020"
       style="font-style:normal;font-weight:normal;font-size:40px;line-height:1.25;font-family:sans-serif;white-space:pre;shape-inside:url(#rect1022);fill:#000000;fill-opacity:1;stroke:none"
       inkscape:export-xdpi="192"
       inkscape:export-ydpi="192"
       transform="matrix(0.26458333,0,0,0.26458333,-105.81228,53.296672)" />
    <text
       xml:space="preserve"
       id="text1026"
       style="font-style:normal;font-weight:normal;font-size:40px;line-height:1.25;font-family:sans-serif;white-space:pre;shape-inside:url(#rect1028);fill:#000000;fill-opacity:1;stroke:none"
       inkscape:export-xdpi="192"
       inkscape:export-ydpi="192"
       transform="matrix(0.26458333,0,0,0.26458333,-105.81228,53.296672)" />
    <text
       xml:space="preserve"
       id="text1032"
       style="font-style:normal;font-weight:normal;font-size:40px;line-height:1.25;font-family:sans-serif;white-space:pre;shape-inside:url(#rect1034);fill:#000000;fill-opacity:1;stroke:none"
       inkscape:export-xdpi="192"
       inkscape:export-ydpi="192"
       transform="matrix(0.26458333,0,0,0.26458333,-105.81228,53.296672)" />
    <g
       id="g6946"
       transform="matrix(0.92216887,0,0,0.92216887,-0.6086542,71.876851)"
       inkscape:export-filename="D:\Naver MYBOX\21_Quantylab\디자인\logo\quantylab_logo_50.png"
       inkscape:export-xdpi="253.9991"
       inkscape:export-ydpi="253.9991">
      <path
         id="rect2725"
         style="fill:#d40000;stroke-width:0"
         d="m 17.977894,82.712631 h 2.711 v 2.711001 h -2.711 z" />
      <path
         id="rect2727"
         style="fill:#d40000;stroke-width:0"
         d="m 20.688894,80.001633 h 2.711 v 2.711 h -2.711 z" />
      <path
         id="path2979"
         style="fill:#d40000;stroke-width:0"
         d="m 23.399894,82.712631 a 2.7109997,2.7109997 0 0 1 -2.711,2.711 2.7109997,2.7109997 0 0 1 -2.710999,-2.711 2.7109997,2.7109997 0 0 1 2.710999,-2.711 2.7109997,2.7109997 0 0 1 2.711,2.711 z" />
    </g>
    <path
       style="fill:none;stroke:#ffffff;stroke-width:0.5;stroke-linecap:round;stroke-linejoin:round;stroke-miterlimit:4;stroke-dasharray:none;stroke-opacity:1"
       d="m 17.114327,148.8297 0.677836,-0.67783 0.677837,0.67783 1.355672,-1.35567"
       id="path7000"
       inkscape:export-filename="D:\Naver MYBOX\21_Quantylab\디자인\logo\quantylab_logo_50.png"
       inkscape:export-xdpi="253.9991"
       inkscape:export-ydpi="253.9991"
       sodipodi:nodetypes="cccc" />
  </g>
</svg>
